<svg xmlns="http://www.w3.org/2000/svg" viewBox="0 0 263 263"><g><polygon points="177.6 159.4 177.6 162.3 177.6 164.7 177.7 164.7 177.7 171.6 131.5 199.2 131.5 199.2 85.8 171.8 85.9 164.8 131.6 192 131.4 184.7 85.7 157.2 85.8 150.2 131.3 177.3 131.2 170.2 64.8 130.7 64.8 188.3 131.5 227.9 198.2 188.3 198.2 129.7 177.6 142"/><polygon points="64.8 62.5 64.8 115.2 131.1 75.7 131.1 75.7 131.1 75.7 131.1 75.7 131.1 75.7 198.2 115.2 198.2 62.5 131.5 55.5"/><polygon points="65 122.9 131 162.2 142.3 155.4 131.2 148.9 131.3 141.9 148.2 151.9 148.3 151.8 153.6 148.3 131.2 135 131.3 128 159.6 144.9 164.5 142 165.2 141.6 165.6 141.4 131.2 121 131.3 114 171.5 137.9 179.9 133 179.9 133 198.1 122.2 131.1 83.2 131.1 83.2"/><path d="M131.5 0C58.9 0 0 58.9 0 131.5S58.9 263 131.5 263 263 204.1 263 131.5 204.1 0 131.5 0zm76.7 194-76.7 45.6L54.8 194V53.4l76.7-8 .8.1 75.9 8V194z"/></g></svg>