<svg version="1.0" xmlns="http://www.w3.org/2000/svg" width="682.67" height="682.67" viewBox="0 0 512 512" preserveAspectRatio="xMidYMid meet"><g transform="matrix(.1 0 0 -.1 0 512)" fill="#000000" stroke="none"><path d="M1210 5113c-309-33-592-171-815-397-199-201-313-414-372-696-17-79-18-176-18-1460s1-1381 18-1460c60-283 174-496 372-696C596 201 815 83 1100 23c79-17 176-18 1460-18 1536 0 1434-4 1652 71 197 68 346 162 504 319 202 199 321 420 381 705 17 79 18 176 18 1460 0 1525 4 1424-66 1636-66 203-166 361-329 524-198 198-396 307-675 373-89 21-103 21-1445 23-745 0-1371-1-1390-3zm2335-921c322-90 562-332 647-652l23-85V1665l-23-85c-85-323-329-567-652-652l-85-23h-895c-821 0-901 1-963 18-333 85-582 330-669 657l-23 85v1790l23 85c91 344 367 602 710 665 63 11 237 13 952 12 874-2 875-2 955-25z"/><path d="M1652 3900c-109-29-187-74-272-160-87-86-131-163-160-276-19-74-20-113-20-904s1-830 20-904c29-113 73-190 160-276 86-87 163-131 276-160 74-19 113-20 904-20s830 1 904 20c113 29 190 73 276 160 87 86 131 163 160 276 19 74 20 113 20 904s-1 830-20 904c-29 113-73 190-160 276-86 87-163 131-276 160-74 19-112 20-908 19-785 0-835-1-904-19zm1838-350c45-23 80-80 80-130s-35-107-80-130c-21-11-53-20-70-20-50 0-107 35-130 80-38 74-16 153 56 196 48 29 92 30 144 4zm-783-256c150-31 275-99 382-207 98-100 162-209 198-341 23-84 23-288 0-372-77-280-300-490-579-548-519-107-989 362-882 882 83 404 481 669 881 586z"/><path d="M2455 2996c-83-20-146-56-211-120-177-178-177-455 0-631 179-178 455-178 631-1 178 179 178 454 1 632-114 114-267 158-421 120z"/></g></svg>