<svg version="1.0" xmlns="http://www.w3.org/2000/svg" width="682.67" height="682.67" viewBox="0 0 512 512" preserveAspectRatio="xMidYMid meet"><g transform="matrix(.1 0 0 -.1 0 512)" fill="#000000" stroke="none"><path d="M2405 4824c-332-33-574-100-852-234-394-192-729-501-963-890-101-167-166-317-231-530l-29-95V1971l34-113C661 881 1550 220 2570 220c779 0 1488 382 1925 1037 146 217 273 524 328 788 37 174 48 284 48 478 0 347-64 646-203 954-222 491-601 879-1093 1118-223 109-428 173-675 210-102 15-414 27-495 19zm-584-934c13 8 19 7 19 0 0-8 6-8 20 0 17 9 20 8 20-9 0-20 0-20 44-1 29 12 46 15 48 8 3-8 11-7 26 1 16 8 22 8 22 1s8-9 20-5c11 4 20 2 20-4 0-7 8-7 25-1 17 7 25 6 25-1 0-6 9-9 20-6s20 1 20-5c0-5 12-7 30-3 17 4 30 3 30-2s16-7 35-5c21 3 35 0 35-7 0-8-92-11-320-11-295 0-344 4-310 25 6 3 10 1 10-6 0-8 7-6 19 5 11 10 25 15 31 11s17-1 25 5c12 10 15 8 15-11 1-24 1-24 22 5 12 16 24 24 26 18 3-9 9-9 23-2zm-251-35c0-8-7-15-16-15-14 0-14 3-4 15 7 8 14 15 16 15s4-7 4-15zm50-5c0-5-8-10-17-10-15 0-16 2-3 10 19 12 20 12 20 0zm2263-161c7-11-72-399-262-1295-149-703-276-1289-281-1301-5-13-16-23-24-23s-211 139-451 310l-437 310-241-230c-198-188-247-230-267-228-23 3-34 32-191 488l-167 485-458 140c-446 136-459 141-462 166-2 18 3 29 15 33 37 15 1394 510 1863 680 267 96 676 245 910 330s429 153 434 152 14-9 19-17z"/><path d="M2506 2755c-417-261-761-476-763-479-2-2 42-153 98-335 57-182 104-329 106-327 3 2 43 376 43 398 0 4 244 224 542 490 747 664 773 689 773 707 0 9-9 17-20 19-12 1-322-187-779-473z"/></g></svg>