<svg version="1.0" xmlns="http://www.w3.org/2000/svg" width="682.67" height="682.67" viewBox="0 0 512 512" preserveAspectRatio="xMidYMid meet"><g transform="matrix(.1 0 0 -.1 0 512)" fill="#000000" stroke="none"><path d="M2371 5110c-403-34-774-150-1109-349-369-218-694-545-912-917C29 3294-73 2632 66 2000 257 1136 912 411 1755 135 2029 45 2266 7 2560 7c354 0 670 62 987 194 497 207 937 592 1216 1063 326 551 431 1221 291 1856-211 956-976 1721-1934 1934-232 51-534 74-749 56zm347-1731c58-13 87-33 108-77 16-33 18-71 19-377 0-306 2-343 18-372 33-61 71-45 170 74 125 151 230 329 316 537 38 90 53 115 81 134l34 23 318-3c303-3 318-4 345-24 83-62 11-217-283-611-194-261-221-311-194-364 7-13 90-103 185-199 167-170 283-311 311-377 23-54 18-107-14-141-42-45-84-52-322-52-391 1-393 2-661 287-136 144-184 169-234 119-27-27-40-69-65-214-27-163-50-181-240-181-267-2-463 56-674 196-261 174-523 526-795 1070-181 362-204 430-161 473 19 19 33 20 288 20 356-1 347 3 431-195 85-202 240-454 343-557 58-60 85-70 112-43 34 34 41 94 41 350 0 218-2 254-17 282-22 40-61 68-115 82-61 17-65 48-11 97 39 36 69 47 153 55 98 9 454 1 513-12z"/></g></svg>