<svg xmlns="http://www.w3.org/2000/svg"><style>:root svg:not(:target){display:none}</style><svg viewBox="0 0 512 512" preserveAspectRatio="xMidYMid meet" id="arrow"><g transform="matrix(.1 0 0 -.1 0 512)" fill="#000000" stroke="none"><path d="M2500 4367v-747H60V1500h2440V5l1277 1278 1278 1277-1278 1277-1277 1278v-748zm1237-2864L2680 445v1235H250v1760h2430v1235l1057-1058 1058-1057-1058-1057z"></path></g></svg><svg viewBox="0 0 512 512" preserveAspectRatio="xMidYMid meet" id="github"><g transform="matrix(.1 0 0 -.1 0 512)" fill="#000000" stroke="none"><path d="M2247 4995C1204 4869 334 4114 80 3115c-59-234-74-356-74-610-1-129 5-259 13-315C127 1407 555 759 1231 349c206-124 479-239 570-239 45 0 55 4 85 34 22 22 34 44 35 63 2 40-3 448-4 449s-42-5-92-13c-108-17-273-12-360 12-115 30-202 79-279 158-64 63-81 90-144 217-83 169-138 244-230 308-142 100-165 144-87 171 31 10 54 11 103 3 136-22 259-109 355-251 120-178 219-247 389-271 78-11 185 1 285 31 71 22 71 22 98 131 18 70 67 163 111 209l25 26-63 7c-103 12-293 55-386 88-168 59-276 123-395 237-222 212-326 520-314 931 4 141 9 178 31 255 36 121 88 223 164 323 48 64 60 86 53 100-21 40-41 168-41 261 0 107 18 219 50 317 25 73 38 78 145 63 136-19 330-99 506-209 71-45 80-48 111-39 84 24 309 59 450 69 228 17 538-10 737-64l54-15 91 56c175 108 358 183 495 203 108 15 117 10 145-79 13-42 29-111 36-154 17-103 8-293-17-372l-19-60 46-56c150-187 212-376 211-645-1-671-304-1054-930-1179-64-12-142-26-174-30l-58-7 35-38c43-48 88-135 112-216 15-51 18-122 23-504 5-334 9-451 19-467 17-31 63-53 108-53 93 0 453 163 659 297 165 109 299 219 435 359 385 395 615 869 691 1424 20 144 17 507-5 655-172 1140-1081 2015-2234 2150-154 18-464 18-615 0z"></path></g></svg><svg viewBox="0 0 512 512" preserveAspectRatio="xMidYMid meet" id="instagram"><g transform="matrix(.1 0 0 -.1 0 512)" fill="#000000" stroke="none"><path d="M1210 5113c-309-33-592-171-815-397-199-201-313-414-372-696-17-79-18-176-18-1460s1-1381 18-1460c60-283 174-496 372-696C596 201 815 83 1100 23c79-17 176-18 1460-18 1536 0 1434-4 1652 71 197 68 346 162 504 319 202 199 321 420 381 705 17 79 18 176 18 1460 0 1525 4 1424-66 1636-66 203-166 361-329 524-198 198-396 307-675 373-89 21-103 21-1445 23-745 0-1371-1-1390-3zm2335-921c322-90 562-332 647-652l23-85V1665l-23-85c-85-323-329-567-652-652l-85-23h-895c-821 0-901 1-963 18-333 85-582 330-669 657l-23 85v1790l23 85c91 344 367 602 710 665 63 11 237 13 952 12 874-2 875-2 955-25z"></path><path d="M1652 3900c-109-29-187-74-272-160-87-86-131-163-160-276-19-74-20-113-20-904s1-830 20-904c29-113 73-190 160-276 86-87 163-131 276-160 74-19 113-20 904-20s830 1 904 20c113 29 190 73 276 160 87 86 131 163 160 276 19 74 20 113 20 904s-1 830-20 904c-29 113-73 190-160 276-86 87-163 131-276 160-74 19-112 20-908 19-785 0-835-1-904-19zm1838-350c45-23 80-80 80-130s-35-107-80-130c-21-11-53-20-70-20-50 0-107 35-130 80-38 74-16 153 56 196 48 29 92 30 144 4zm-783-256c150-31 275-99 382-207 98-100 162-209 198-341 23-84 23-288 0-372-77-280-300-490-579-548-519-107-989 362-882 882 83 404 481 669 881 586z"></path><path d="M2455 2996c-83-20-146-56-211-120-177-178-177-455 0-631 179-178 455-178 631-1 178 179 178 454 1 632-114 114-267 158-421 120z"></path></g></svg><svg viewBox="0 0 512 512" preserveAspectRatio="xMidYMid meet" id="telegram"><g transform="matrix(.1 0 0 -.1 0 512)" fill="#000000" stroke="none"><path d="M2405 4824c-332-33-574-100-852-234-394-192-729-501-963-890-101-167-166-317-231-530l-29-95V1971l34-113C661 881 1550 220 2570 220c779 0 1488 382 1925 1037 146 217 273 524 328 788 37 174 48 284 48 478 0 347-64 646-203 954-222 491-601 879-1093 1118-223 109-428 173-675 210-102 15-414 27-495 19zm-584-934c13 8 19 7 19 0 0-8 6-8 20 0 17 9 20 8 20-9 0-20 0-20 44-1 29 12 46 15 48 8 3-8 11-7 26 1 16 8 22 8 22 1s8-9 20-5c11 4 20 2 20-4 0-7 8-7 25-1 17 7 25 6 25-1 0-6 9-9 20-6s20 1 20-5c0-5 12-7 30-3 17 4 30 3 30-2s16-7 35-5c21 3 35 0 35-7 0-8-92-11-320-11-295 0-344 4-310 25 6 3 10 1 10-6 0-8 7-6 19 5 11 10 25 15 31 11s17-1 25 5c12 10 15 8 15-11 1-24 1-24 22 5 12 16 24 24 26 18 3-9 9-9 23-2zm-251-35c0-8-7-15-16-15-14 0-14 3-4 15 7 8 14 15 16 15s4-7 4-15zm50-5c0-5-8-10-17-10-15 0-16 2-3 10 19 12 20 12 20 0zm2263-161c7-11-72-399-262-1295-149-703-276-1289-281-1301-5-13-16-23-24-23s-211 139-451 310l-437 310-241-230c-198-188-247-230-267-228-23 3-34 32-191 488l-167 485-458 140c-446 136-459 141-462 166-2 18 3 29 15 33 37 15 1394 510 1863 680 267 96 676 245 910 330s429 153 434 152 14-9 19-17z"></path><path d="M2506 2755c-417-261-761-476-763-479-2-2 42-153 98-335 57-182 104-329 106-327 3 2 43 376 43 398 0 4 244 224 542 490 747 664 773 689 773 707 0 9-9 17-20 19-12 1-322-187-779-473z"></path></g></svg><svg viewBox="0 0 512 512" preserveAspectRatio="xMidYMid meet" id="vk"><g transform="matrix(.1 0 0 -.1 0 512)" fill="#000000" stroke="none"><path d="M2371 5110c-403-34-774-150-1109-349-369-218-694-545-912-917C29 3294-73 2632 66 2000 257 1136 912 411 1755 135 2029 45 2266 7 2560 7c354 0 670 62 987 194 497 207 937 592 1216 1063 326 551 431 1221 291 1856-211 956-976 1721-1934 1934-232 51-534 74-749 56zm347-1731c58-13 87-33 108-77 16-33 18-71 19-377 0-306 2-343 18-372 33-61 71-45 170 74 125 151 230 329 316 537 38 90 53 115 81 134l34 23 318-3c303-3 318-4 345-24 83-62 11-217-283-611-194-261-221-311-194-364 7-13 90-103 185-199 167-170 283-311 311-377 23-54 18-107-14-141-42-45-84-52-322-52-391 1-393 2-661 287-136 144-184 169-234 119-27-27-40-69-65-214-27-163-50-181-240-181-267-2-463 56-674 196-261 174-523 526-795 1070-181 362-204 430-161 473 19 19 33 20 288 20 356-1 347 3 431-195 85-202 240-454 343-557 58-60 85-70 112-43 34 34 41 94 41 350 0 218-2 254-17 282-22 40-61 68-115 82-61 17-65 48-11 97 39 36 69 47 153 55 98 9 454 1 513-12z"></path></g></svg></svg>